<svg width="25" height="26" viewBox="0 0 25 26" fill="none" xmlns="http://www.w3.org/2000/svg">
<path d="M5.64112 21.9488C5.07467 21.9488 4.61548 21.4896 4.61548 20.9231V5.53851C4.61548 4.97206 5.07467 4.51284 5.64112 4.51284H12.1847C12.5746 4.51015 12.9323 4.72876 13.1078 5.07697L13.8462 6.56415H18.9745C19.5409 6.56415 20.0001 7.02334 20.0001 7.58979V15.7949C20.0001 16.3614 19.5409 16.8206 18.9745 16.8206H13.4462C13.06 16.8194 12.7072 16.6014 12.5334 16.2565L11.795 14.7693H6.66676V20.9231C6.66676 21.4896 6.20757 21.9488 5.64112 21.9488ZM6.66676 6.56415V12.718H12.8206L13.8462 14.7693H17.9488V8.61543H12.8206L11.795 6.56415H6.66676Z" fill="#E8E8E8"/>
</svg>
