<svg width="25" height="25" viewBox="0 0 25 25" fill="none" xmlns="http://www.w3.org/2000/svg">
<path d="M22.5 25H2.5C1.11929 25 0 23.8618 0 22.4578V8.53775C0.0421891 7.68465 0.496599 6.908 1.21375 6.46328L11.2137 0.361912C12.0052 -0.120637 12.9936 -0.120637 13.785 0.361912L23.785 6.46328C24.5365 6.92441 24.997 7.75073 25 8.64325V22.4578C25 23.8618 23.8807 25 22.5 25ZM2.5 9.57879V22.4578H22.5V9.57879L12.5 16.3577L2.5 9.57879ZM12.5 2.54188L4.145 7.63906L12.5 13.3032L20.8538 7.63906L12.5 2.54188Z" fill="#ED4850"/>
</svg>
