<svg width="24" height="24" viewBox="0 0 24 24" fill="none" xmlns="http://www.w3.org/2000/svg">
<path d="M9 9H7V11H9V9ZM11 9H13V11H11V9ZM17 9H15V11H17V9Z" fill="black"/>
<path d="M3 5V21L7.8 17.4C8.146 17.14 8.567 17 9 17H19C19.5304 17 20.0391 16.7893 20.4142 16.4142C20.7893 16.0391 21 15.5304 21 15V5C21 4.46957 20.7893 3.96086 20.4142 3.58579C20.0391 3.21071 19.5304 3 19 3H5C4.46957 3 3.96086 3.21071 3.58579 3.58579C3.21071 3.96086 3 4.46957 3 5V5ZM5 17V5H19V15H8.334C7.90107 14.9988 7.47964 15.1393 7.134 15.4L5 17Z" fill="black"/>
</svg>
