<svg width="30" height="30" viewBox="0 0 30 30" fill="none" xmlns="http://www.w3.org/2000/svg">
<path d="M11.25 11.25H8.75V13.75H11.25V11.25Z" fill="#FF4B54"/>
<path d="M13.75 11.25H16.25V13.75H13.75V11.25Z" fill="#FF4B54"/>
<path d="M21.25 11.25H18.75V13.75H21.25V11.25Z" fill="#FF4B54"/>
<path d="M3.75 6.25V26.25L9.75 21.75C10.1823 21.4245 10.7089 21.249 11.25 21.25H23.75C25.1307 21.25 26.25 20.1307 26.25 18.75V6.25C26.25 4.86929 25.1307 3.75 23.75 3.75H6.25C4.86929 3.75 3.75 4.86929 3.75 6.25ZM6.25 21.25V6.25H23.75V18.75H10.4175C9.87634 18.7485 9.34956 18.9241 8.9175 19.25L6.25 21.25Z" fill="#FF4B54"/>
</svg>
