<svg width="29" height="29" viewBox="0 0 29 29" fill="none" xmlns="http://www.w3.org/2000/svg">
<path d="M19.9698 27.528H8.36899C7.0876 27.528 6.04883 26.4892 6.04883 25.2078V4.3263C6.04883 3.04491 7.0876 2.00613 8.36899 2.00613H19.9698C21.2512 2.00613 22.29 3.04491 22.29 4.3263V25.2078C22.29 26.4892 21.2512 27.528 19.9698 27.528ZM8.36899 4.3263V25.2078H19.9698V4.3263H8.36899ZM14.1694 24.0477C13.5287 24.0477 13.0093 23.5283 13.0093 22.8876C13.0093 22.2469 13.5287 21.7275 14.1694 21.7275C14.8101 21.7275 15.3295 22.2469 15.3295 22.8876C15.3295 23.5283 14.8101 24.0477 14.1694 24.0477Z" fill="#E8E8E8"/>
</svg>
