<svg width="154" height="27" viewBox="0 0 154 27" fill="none" xmlns="http://www.w3.org/2000/svg">
<g clip-path="url(#clip0_345_10585)">
<path d="M107.073 20.9513C103.5 20.9513 100.734 19.1234 100.677 15.9551H104.376C104.478 17.2955 105.388 18.1929 106.993 18.1929C108.62 18.1929 109.587 17.3509 109.587 16.1545C109.587 12.5208 100.7 14.7143 100.723 8.6324C100.723 5.60805 103.238 3.78015 106.799 3.78015C110.327 3.78015 112.751 5.5305 112.967 8.56593H109.166C109.087 7.45811 108.176 6.59401 106.697 6.57185C105.343 6.52754 104.33 7.17007 104.33 8.54377C104.33 11.9115 113.16 10.0282 113.16 15.944C113.172 18.5695 110.998 20.9513 107.073 20.9513Z" fill="#FC4964"/>
<path d="M122.799 7.12573C126.303 7.12573 129.046 9.79557 129.046 13.9499C129.046 18.1042 126.303 20.8738 122.799 20.8738C120.648 20.8738 119.123 19.8435 118.281 18.7578V27H114.822V7.3473H118.281V9.2749C119.089 8.13385 120.671 7.12573 122.799 7.12573ZM121.877 10.0836C120.022 10.0836 118.27 11.4795 118.27 14.0053C118.27 16.5311 120.022 17.927 121.877 17.927C123.754 17.927 125.507 16.4868 125.507 13.961C125.507 11.4351 123.754 10.0836 121.877 10.0836Z" fill="#FC4964"/>
<path d="M137.432 20.8738C133.483 20.8738 130.502 18.1818 130.502 14.0053C130.502 9.7956 133.586 7.13684 137.534 7.13684C141.483 7.13684 144.567 9.80668 144.567 14.0053C144.567 18.1818 141.403 20.8738 137.432 20.8738ZM137.432 17.9381C139.252 17.9381 141.005 16.6419 141.005 13.9942C141.005 11.3244 139.298 10.0504 137.477 10.0504C135.657 10.0504 133.995 11.3244 133.995 13.9942C134.007 16.6419 135.577 17.9381 137.432 17.9381Z" fill="#FC4964"/>
<path d="M147.457 10.1058H145.83V7.34735H147.457V4.05713H150.939V7.34735H154V10.1058H150.939V16.5422C150.939 17.4285 151.314 17.8162 152.395 17.8162H154V20.6522H151.826C149.209 20.6522 147.457 19.5666 147.457 16.5201V10.1058Z" fill="#FC4964"/>
<path d="M42.0182 3.66931C45.8302 3.66931 48.9254 5.65231 50.0746 9.07546H46.1147C45.3068 7.46913 43.8275 6.68258 41.9841 6.68258C38.98 6.68258 36.8521 8.80959 36.8521 12.2106C36.8521 15.5894 38.9914 17.7386 41.9841 17.7386C43.8275 17.7386 45.3068 16.9521 46.1147 15.3236H50.0746C48.914 18.7689 45.8189 20.7297 42.0182 20.7297C37.0797 20.7297 33.3132 17.2068 33.3132 12.2106C33.3132 7.21433 37.0683 3.66931 42.0182 3.66931Z" fill="white"/>
<path d="M57.9376 20.8073C53.9776 20.8073 51.1101 18.1263 51.1101 13.9609C51.1101 9.77339 53.9094 7.11462 57.9376 7.11462C61.8747 7.11462 64.6512 9.718 64.6512 13.6729C64.6512 14.105 64.6285 14.537 64.5488 14.9691H54.5921C54.7628 16.9299 56.1397 18.0266 57.8579 18.0266C59.3372 18.0266 60.1451 17.3066 60.5889 16.4203H64.2985C63.5702 18.8686 61.3058 20.8073 57.9376 20.8073ZM54.6262 12.7202H61.0896C61.0441 10.9698 59.6103 9.87309 57.8465 9.87309C56.1966 9.87309 54.888 10.9034 54.6262 12.7202Z" fill="white"/>
<path d="M66.1191 2.88281H69.5556V20.5857H66.1191V2.88281Z" fill="white"/>
<path d="M77.8738 20.8073C73.9139 20.8073 71.0464 18.1263 71.0464 13.9609C71.0464 9.77339 73.8456 7.11462 77.8738 7.11462C81.811 7.11462 84.5875 9.718 84.5875 13.6729C84.5875 14.105 84.5648 14.537 84.4851 14.9691H74.5284C74.6991 16.9299 76.076 18.0266 77.7942 18.0266C79.2735 18.0266 80.0814 17.3066 80.5252 16.4203H84.2348C83.5065 18.8686 81.2421 20.8073 77.8738 20.8073ZM74.5512 12.7202H81.0145C80.969 10.9698 79.5352 9.87309 77.7714 9.87309C76.1328 9.87309 74.8243 10.9034 74.5512 12.7202Z" fill="white"/>
<path d="M93.998 7.11468C97.4914 7.11468 100.211 9.77344 100.211 13.9056C100.211 18.0488 97.48 20.7962 93.998 20.7962C91.8588 20.7962 90.334 19.8435 89.5033 18.6914V20.5858H86.0554V2.88281H89.4919V9.27492C90.334 8.05632 91.927 7.11468 93.998 7.11468ZM93.0877 10.0615C91.2443 10.0615 89.5033 11.4462 89.5033 13.961C89.5033 16.4757 91.2443 17.8605 93.0877 17.8605C94.9539 17.8605 96.7063 16.4204 96.7063 13.9167C96.6949 11.4019 94.9539 10.0615 93.0877 10.0615Z" fill="white"/>
</g>
<path d="M12.6793 24.6846C5.28285 24.6292 -0.144976 18.7688 0.00295194 12.0001C0.15088 5.30884 5.99974 -0.130552 12.8727 0.002386C20.0643 0.146402 25.5945 5.7852 25.3556 12.8309C25.1394 19.2563 19.7343 24.6846 12.6793 24.6846ZM21.3388 12.3435C16.3661 11.568 13.5782 8.85385 12.6793 4.04592C11.7917 8.87601 8.9583 11.5569 4.01977 12.3435C9.02658 13.119 11.8031 15.8663 12.6906 20.6189C13.5668 15.8331 16.3661 13.1411 21.3388 12.3435Z" fill="#FC4964"/>
<path d="M21.339 12.3436C16.3663 13.1523 13.5557 15.8332 12.6909 20.619C11.7919 15.8664 9.01544 13.1191 4.02002 12.3436C8.95855 11.557 11.7919 8.87611 12.6795 4.04602C13.5898 8.85395 16.3663 11.5681 21.339 12.3436Z" fill="white"/>
<defs>
<clipPath id="clip0_345_10585">
<rect width="150.215" height="26.9975" fill="white" transform="translate(3.78467 0.00244141)"/>
</clipPath>
</defs>
</svg>
